<svg xmlns="http://www.w3.org/2000/svg" xmlns:xlink="http://www.w3.org/1999/xlink" viewBox="0 0 263.58 255.53"><defs><style>.cls-1{fill:url(#Gradiente_sem_nome_81);}.cls-2{fill:url(#Gradiente_sem_nome_81-2);}.cls-3{fill:url(#Gradiente_sem_nome_81-3);}.cls-4{fill:url(#Gradiente_sem_nome_81-4);}.cls-5{fill:none;stroke:#f2f2f2;stroke-linecap:round;stroke-linejoin:round;stroke-width:6px;}</style><linearGradient id="Gradiente_sem_nome_81" x1="268.22" y1="174.45" x2="268.72" y2="174.45" gradientUnits="userSpaceOnUse"><stop offset="0.01" stop-color="#2f74d8"/><stop offset="0.28" stop-color="#3376db"/><stop offset="1" stop-color="#3678dd"/></linearGradient><linearGradient id="Gradiente_sem_nome_81-2" x1="268.22" y1="75.75" x2="268.72" y2="75.75" xlink:href="#Gradiente_sem_nome_81"/><linearGradient id="Gradiente_sem_nome_81-3" x1="96.52" y1="24.8" x2="96.52" y2="0" xlink:href="#Gradiente_sem_nome_81"/><linearGradient id="Gradiente_sem_nome_81-4" x1="74.29" y1="255.53" x2="74.29" y2="31.77" xlink:href="#Gradiente_sem_nome_81"/></defs><title>logotemp</title><g id="triangular"><path class="cls-1" d="M263.58,195a69.09,69.09,0,0,1-35.34,60.54H163.51A69.08,69.08,0,0,1,128.16,195c0-34.31,20.89-58.23,49.39-66.36a4.2,4.2,0,0,0,3-4V101.3a7.85,7.85,0,0,1,7.79-7.92h15.1a7.85,7.85,0,0,1,7.78,7.91v23.33a4.21,4.21,0,0,0,3,4C242.73,136.82,263.58,163.42,263.58,195Z"/><path class="cls-2" d="M212.43,87.8H179.3c-6.57,1-11.9-5.4-11.9-12.09h0A12,12,0,0,1,179.3,63.6h33.13a12,12,0,0,1,11.9,12.11h0C224.33,82.4,219,88.82,212.43,87.8Z"/><rect class="cls-3" x="54.02" width="85" height="24.8" rx="12.4"/><path class="cls-4" d="M147.66,252a1.91,1.91,0,0,1-1,3.54H20.58c-15.82,0-25.71-16.67-17.8-30l37.73-63.63L70.57,113a17.82,17.82,0,0,0,2.65-9.37V40.49a8.84,8.84,0,0,1,9-8.72h28.9a8.84,8.84,0,0,1,9,8.72v63.28a17.94,17.94,0,0,0,2.5,9.12L137.43,138a5,5,0,0,1-.82,6.13C123.26,156.73,118,174.33,118,193.83,118,218.25,127.71,239.71,147.66,252Z"/><line class="cls-5" x1="177.12" y1="77" x2="197.37" y2="77"/><line class="cls-5" x1="66.9" y1="13.53" x2="92.29" y2="13.53"/><line class="cls-5" x1="84.42" y1="42.42" x2="84.27" y2="107.25"/><line class="cls-5" x1="84.07" y1="107.7" x2="17.02" y2="225.6"/><path class="cls-5" d="M139.37,190.37a57.65,57.65,0,0,1,51-57.32"/><line class="cls-5" x1="190.42" y1="102.73" x2="190.42" y2="132.8"/></g></svg>